#!OML:ASF H:\Dans Jumps\Project 1\Capture day 1\Session 1\subject.ASF
:FULLY-SPECIFIED
:DEGREES
439
root 0.750463 16.6471 -15.8492 14.4652 -1.80563 -1.66365
lowerback 12.9748 0.00446555 -0.0435971
upperback 8.74032 -0.012727 1.90906
thorax 1.90656 -0.0663241 2.01414
lowerneck -14.2557 0.925398 -1.03063
upperneck 21.5714 1.69288 -0.734928
head 9.12471 0.620343 0.12289
rclavicle -1.19271e-015 4.37326e-015
rhumerus -15.5216 2.44687 -84.0605
rradius 41.4046
rwrist 20.5103
rhand -20.0437 -27.1919
rfingers 7.12502
rthumb 6.29764 -57.0783
lclavicle -1.19271e-015 4.37326e-015
lhumerus -14.9512 -12.4083 87.3496
lradius 31.0635
lwrist 15.3169
lhand -27.5769 -3.5985
lfingers 7.12502
lthumb -0.977293 26.379
rfemur -43.9253 -2.78285 20.5456
rtibia 47.8924
rfoot -16.9481 -5.22836
rtoes 7.07308
lfemur -43.6659 8.09777 -21.0111
ltibia 46.8666
lfoot -15.5155 7.04616
ltoes 4.46124
440
root 0.752188 16.6152 -15.8816 14.6845 -1.80675 -1.6446
lowerback 13.2335 0.00131326 -0.0493846
upperback 8.79941 -0.0159646 1.90521
thorax 1.83159 -0.0682331 2.01473
lowerneck -14.3128 0.92476 -1.02059
upperneck 21.1845 1.69575 -0.781222
head 9.00227 0.621148 0.104929
rclavicle 4.17448e-015 7.15625e-015
rhumerus -15.6542 2.53608 -84.0467
rradius 41.6372
rwrist 20.4064
rhand -20.0289 -27.1835
rfingers 7.12502
rthumb 6.31191 -57.0694
lclavicle 4.17448e-015 7.15625e-015
lhumerus -15.053 -12.3443 87.3378
lradius 31.0095
lwrist 15.4724
lhand -27.5564 -3.55485
lfingers 7.12502
lthumb -0.95752 26.4228
rfemur -44.6126 -2.77613 20.5402
rtibia 48.4514
rfoot -17.0509 -5.2806
rtoes 6.96938
lfemur -44.3591 8.08503 -21.0911
ltibia 47.4162
lfoot -15.5979 7.08066
ltoes 4.41978
441
root 0.753854 16.5829 -15.9136 14.9098 -1.80727 -1.63235
lowerback 13.485 -0.000975071 -0.0491278
upperback 8.85506 -0.0174953 1.9043
thorax 1.75704 -0.0691038 2.0148
lowerneck -14.3584 0.922 -1.01726
upperneck 20.7891 1.69556 -0.822348
head 8.87529 0.620746 0.0894851
rclavicle -9.54166e-015 -1.53064e-014
rhumerus -15.7984 2.61487 -84.0306
rradius 41.8536
rwrist 20.3033
rhand -20.0042 -27.1763
rfingers 7.12502
rthumb 6.33576 -57.0615
lclavicle -9.54166e-015 -1.53064e-014
lhumerus -15.1673 -12.2834 87.3334
lradius 30.9538
lwrist 15.6207
lhand -27.5071 -3.44808
lfingers 7.12502
lthumb -0.909816 26.5297
rfemur -45.3034 -2.76567 20.5416
rtibia 49.0057
rfoot -17.1496 -5.33589
rtoes 6.85785
lfemur -45.0587 8.07299 -21.1644
ltibia 47.9684
lfoot -15.6852 7.11953
ltoes 4.36409
442
root 0.755235 16.5501 -15.9452 15.1433 -1.80487 -1.62497
lowerback 13.7257 -0.0025891 -0.0436733
upperback 8.90741 -0.017631 1.90407
thorax 1.68493 -0.0690691 2.01248
lowerneck -14.3963 0.917185 -1.01621
upperneck 20.3885 1.69161 -0.858778
head 8.74564 0.619061 0.0755936
rclavicle 2.18663e-015 1.61016e-014
rhumerus -15.946 2.6808 -84.0147
rradius 42.0433
rwrist 20.2036
rhand -19.991 -27.1679
rfingers 7.12502
rthumb 6.34849 -57.0528
lclavicle 2.18663e-015 1.61016e-014
lhumerus -15.29 -12.2227 87.3318
lradius 30.896
lwrist 15.762
lhand -27.4133 -3.24918
lfingers 7.12502
lthumb -0.8193 26.729
rfemur -46.0009 -2.75324 20.5488
rtibia 49.5572
rfoot -17.2464 -5.39203
rtoes 6.7525
lfemur -45.767 8.06118 -21.233
ltibia 48.5223
lfoot -15.7757 7.1599
ltoes 4.29446
443
root 0.756321 16.5171 -15.9761 15.3801 -1.80369 -1.61787
lowerback 13.9595 -0.00256123 -0.0411197
upperback 8.95608 -0.0159155 1.904
thorax 1.61276 -0.0682124 2.01172
lowerneck -14.4227 0.911913 -1.0139
upperneck 19.9864 1.68663 -0.896579
head 8.61399 0.616968 0.0609207
rclavicle 1.78906e-015 -1.25234e-014
rhumerus -16.103 2.73192 -83.9983
rradius 42.2066
rwrist 20.1155
rhand -19.9902 -27.1476
rfingers 7.12502
rthumb 6.34928 -57.0325
lclavicle 1.78906e-015 -1.25234e-014
lhumerus -15.4239 -12.1637 87.3348
lradius 30.8385
lwrist 15.9123
lhand -27.3008 -2.98344
lfingers 7.12502
lthumb -0.710635 26.9951
rfemur -46.6993 -2.73905 20.5565
rtibia 50.1065
rfoot -17.3417 -5.44942
rtoes 6.63571
lfemur -46.4749 8.0486 -21.3004
ltibia 49.0756
lfoot -15.8685 7.20504
ltoes 4.21562
444
root 0.756942 16.4838 -16.0063 15.6213 -1.80062 -1.60676
lowerback 14.1848 -0.00161961 -0.0458399
upperback 9.00093 -0.013799 1.90286
thorax 1.54123 -0.0673918 2.01387
lowerneck -14.4367 0.905934 -1.00938
upperneck 19.5797 1.6793 -0.932701
head 8.47909 0.614272 0.0461789
rclavicle 1.78906e-015 1.47101e-014
rhumerus -16.258 2.76654 -83.9832
rradius 42.329
rwrist 20.0398
rhand -20.0069 -27.1285
rfingers 7.12502
rthumb 6.3332 -57.0138
lclavicle 1.78906e-015 1.47101e-014
lhumerus -15.5659 -12.0919 87.34
lradius 30.7795
lwrist 16.0622
lhand -27.1547 -2.65492
lfingers 7.12502
lthumb -0.56949 27.3241
rfemur -47.4003 -2.72608 20.5616
rtibia 50.6556
rfoot -17.4379 -5.50768
rtoes 6.52645
lfemur -47.1836 8.03265 -21.3704
ltibia 49.627
lfoot -15.9617 7.25197
ltoes 4.13764
445
root 0.757219 16.4504 -16.0357 15.8617 -1.80253 -1.59265
lowerback 14.4046 0.00176315 -0.0592289
upperback 9.04575 -0.00957512 1.90041
thorax 1.47277 -0.0658546 2.01926
lowerneck -14.4551 0.901968 -0.996723
upperneck 19.1831 1.67426 -0.975279
head 8.34914 0.612498 0.0283176
rclavicle -6.75868e-015 2.18663e-015
rhumerus -16.4128 2.7918 -83.9687
rradius 42.4219
rwrist 19.9782
rhand -20.0408 -27.1102
rfingers 7.12502
rthumb 6.3004 -56.9965
lclavicle -6.75868e-015 2.18663e-015
lhumerus -15.7156 -12.0082 87.3495
lradius 30.7162
lwrist 16.2012
lhand -27.0224 -2.32078
lfingers 7.12502
lthumb -0.441712 27.6585
rfemur -48.0978 -2.71233 20.5643
rtibia 51.2035
rfoot -17.5371 -5.56216
rtoes 6.43488
lfemur -47.8853 8.0173 -21.4424
ltibia 50.1741
lfoot -16.0538 7.30295
ltoes 4.06764
446
root 0.757141 16.4167 -16.0645 16.103 -1.80956 -1.57819
lowerback 14.6175 0.00721426 -0.0788106
upperback 9.09097 -0.00353361 1.89677
thorax 1.40851 -0.0636562 2.02663
lowerneck -14.4769 0.899842 -0.978428
upperneck 18.7926 1.67079 -1.01988
head 8.22246 0.611615 0.00914958
rclavicle -3.37934e-015 2.52457e-014
rhumerus -16.5602 2.80451 -83.9565
rradius 42.4783
rwrist 19.9365
rhand -20.0704 -27.1008
rfingers 7.12502
rthumb 6.27181 -56.988
lclavicle -3.37934e-015 2.52457e-014
lhumerus -15.8657 -11.9199 87.3625
lradius 30.637
lwrist 16.3281
lhand -26.9181 -1.9942
lfingers 7.12502
lthumb -0.340938 27.9853
rfemur -48.7943 -2.698 20.5684
rtibia 51.7502
rfoot -17.6372 -5.61369
rtoes 6.3479
lfemur -48.5835 8.00282 -21.5137
ltibia 50.7157
lfoot -16.1397 7.35921
ltoes 3.9976
447
root 0.756877 16.3831 -16.0924 16.3383 -1.82071 -1.55976
lowerback 14.8258 0.0140109 -0.105138
upperback 9.13793 0.00327904 1.89111
thorax 1.34873 -0.0613224 2.03558
lowerneck -14.4989 0.899637 -0.955175
upperneck 18.4088 1.66917 -1.06683
head 8.0986 0.611673 -0.0113107
rclavicle -4.57205e-015 -2.46493e-014
rhumerus -16.7023 2.80661 -83.9457
rradius 42.4997
rwrist 19.9143
rhand -20.0934 -27.0975
rfingers 7.12502
rthumb 6.24962 -56.9853
lclavicle -4.57205e-015 -2.46493e-014
lhumerus -16.0253 -11.8322 87.3816
lradius 30.5454
lwrist 16.4387
lhand -26.8385 -1.69446
lfingers 7.12502
lthumb -0.26408 28.2851
rfemur -49.4799 -2.68913 20.5705
rtibia 52.2935
rfoot -17.7415 -5.66009
rtoes 6.26297
lfemur -49.2673 7.98618 -21.5868
ltibia 51.2511
lfoot -16.2242 7.41953
ltoes 3.93774
448
root 0.756396 16.3496 -16.1194 16.5636 -1.82914 -1.53946
lowerback 15.0365 0.0197716 -0.135013
upperback 9.18744 0.00819053 1.8861
thorax 1.29074 -0.060115 2.04746
lowerneck -14.5309 0.901435 -0.928943
upperneck 18.0394 1.67037 -1.11677
head 7.98185 0.612803 -0.0327675
rclavicle 3.57812e-015 -6.55989e-015
rhumerus -16.8411 2.80166 -83.9338
rradius 42.4934
rwrist 19.9085
rhand -20.1118 -27.1016
rfingers 7.12502
rthumb 6.23183 -56.9899
lclavicle 3.57812e-015 -6.55989e-015
lhumerus -16.1907 -11.7588 87.4103
lradius 30.434
lwrist 16.5509
lhand -26.8527 -1.54431
lfingers 7.12502
lthumb -0.277814 28.4353
rfemur -50.1489 -2.68872 20.5737
rtibia 52.8335
rfoot -17.8506 -5.70259
rtoes 6.18024
lfemur -49.934 7.96308 -21.6571
ltibia 51.7808
lfoot -16.3048 7.48238
ltoes 3.88581
449
root 0.755875 16.316 -16.1456 16.7778 -1.83671 -1.5218
lowerback 15.2501 0.0250993 -0.164379
upperback 9.2376 0.0124917 1.88404
thorax 1.23214 -0.0592747 2.06224
lowerneck -14.5608 0.904014 -0.909303
upperneck 17.6773 1.6732 -1.16266
head 7.86748 0.614607 -0.0515342
rclavicle -2.18663e-015 -5.96354e-016
rhumerus -16.9833 2.78963 -83.9178
rradius 42.4615
rwrist 19.9165
rhand -20.1314 -27.1011
rfingers 7.12502
rthumb 6.21299 -56.99
lclavicle -2.18663e-015 -5.96354e-016
lhumerus -16.3719 -11.6996 87.4528
lradius 30.3106
lwrist 16.665
lhand -26.9451 -1.50445
lfingers 7.12502
lthumb -0.367079 28.475
rfemur -50.8001 -2.69549 20.5827
rtibia 53.3695
rfoot -17.9621 -5.74377
rtoes 6.07299
lfemur -50.5821 7.93413 -21.7193
ltibia 52.3068
lfoot -16.3848 7.54998
ltoes 3.84056
450
root 0.755214 16.2821 -16.1711 16.986 -1.83911 -1.50624
lowerback 15.4634 0.0299771 -0.190069
upperback 9.28678 0.0165807 1.88436
thorax 1.17289 -0.0584366 2.07747
lowerneck -14.596 0.906653 -0.890161
upperneck 17.3278 1.67636 -1.20887
head 7.7586 0.616388 -0.070169
rclavicle -7.95139e-015 -3.97569e-016
rhumerus -17.1247 2.76504 -83.897
rradius 42.4
rwrist 19.9372
rhand -20.1352 -27.1054
rfingers 7.12502
rthumb 6.20934 -56.9944
lclavicle -7.95139e-015 -3.97569e-016
lhumerus -16.5621 -11.6649 87.5077
lradius 30.1593
lwrist 16.7769
lhand -27.1151 -1.65306
lfingers 7.12502
lthumb -0.531283 28.326
rfemur -51.4408 -2.70932 20.5969
rtibia 53.9024
rfoot -18.0754 -5.78439
rtoes 5.95032
lfemur -51.2207 7.89652 -21.7734
ltibia 52.831
lfoot -16.463 7.62145
ltoes 3.78999
451
root 0.754438 16.248 -16.1959 17.1849 -1.8345 -1.49415
lowerback 15.6798 0.0333111 -0.20982
upperback 9.33598 0.0193672 1.88743
thorax 1.11231 -0.0580677 2.09245
lowerneck -14.6362 0.910358 -0.872032
upperneck 16.9895 1.68147 -1.25622
head 7.6546 0.618819 -0.0886921
rclavicle 3.57812e-015 2.68359e-014
rhumerus -17.2754 2.72987 -83.8717
rradius 42.3271
rwrist 19.9645
rhand -20.1329 -27.1071
rfingers 7.12502
rthumb 6.21153 -56.9961
lclavicle 3.57812e-015 2.68359e-014
lhumerus -16.7652 -11.643 87.5742
lradius 29.991
lwrist 16.8911
lhand -27.3532 -1.9674
lfingers 7.12502
lthumb -0.761223 28.011
rfemur -52.0664 -2.72997 20.6173
rtibia 54.4317
rfoot -18.1915 -5.82422
rtoes 5.81547
lfemur -51.8457 7.84848 -21.8168
ltibia 53.3546
lfoot -16.5415 7.69803
ltoes 3.73532
